<mxfile host="app.diagrams.net" modified="2023-04-19T02:29:32.342Z" agent="Mozilla/5.0 (Macintosh; Intel Mac OS X 10_15_7) AppleWebKit/537.36 (KHTML, like Gecko) Chrome/112.0.0.0 Safari/537.36" etag="j_90D-IV37LikZ1GXiFw" version="21.1.6" type="github">
  <diagram name="Page-1" id="gmZfGL85wiUmp3Tma9j_">
    <mxGraphModel dx="968" dy="692" grid="1" gridSize="10" guides="1" tooltips="1" connect="1" arrows="1" fold="1" page="1" pageScale="1" pageWidth="850" pageHeight="1100" math="0" shadow="0">
      <root>
        <mxCell id="0" />
        <mxCell id="1" parent="0" />
        <mxCell id="EkRoal58RrBzXuHU6dCH-77" value="" style="rounded=0;whiteSpace=wrap;html=1;fillColor=none;dashed=1;" vertex="1" parent="1">
          <mxGeometry x="100" y="745" width="710" height="265" as="geometry" />
        </mxCell>
        <mxCell id="EkRoal58RrBzXuHU6dCH-19" style="edgeStyle=orthogonalEdgeStyle;rounded=0;orthogonalLoop=1;jettySize=auto;html=1;exitX=0.5;exitY=1;exitDx=0;exitDy=0;entryX=0.5;entryY=0;entryDx=0;entryDy=0;" edge="1" parent="1" source="EkRoal58RrBzXuHU6dCH-1" target="EkRoal58RrBzXuHU6dCH-18">
          <mxGeometry relative="1" as="geometry" />
        </mxCell>
        <mxCell id="EkRoal58RrBzXuHU6dCH-1" value="" style="rounded=1;whiteSpace=wrap;html=1;fillColor=#dae8fc;strokeColor=#6c8ebf;" vertex="1" parent="1">
          <mxGeometry x="120" y="120" width="320" height="120" as="geometry" />
        </mxCell>
        <mxCell id="EkRoal58RrBzXuHU6dCH-2" value="" style="triangle;whiteSpace=wrap;html=1;rotation=90;fillColor=#e1d5e7;strokeColor=none;" vertex="1" parent="1">
          <mxGeometry x="245" y="20" width="70" height="110" as="geometry" />
        </mxCell>
        <mxCell id="EkRoal58RrBzXuHU6dCH-3" value="&lt;b&gt;&lt;font style=&quot;font-size: 16px;&quot;&gt;in&lt;/font&gt;&lt;/b&gt;" style="text;html=1;strokeColor=none;fillColor=#e1d5e7;align=center;verticalAlign=middle;whiteSpace=wrap;rounded=0;" vertex="1" parent="1">
          <mxGeometry x="260" y="50" width="40" height="30" as="geometry" />
        </mxCell>
        <mxCell id="EkRoal58RrBzXuHU6dCH-8" style="edgeStyle=orthogonalEdgeStyle;rounded=0;orthogonalLoop=1;jettySize=auto;html=1;exitX=1;exitY=0.5;exitDx=0;exitDy=0;entryX=0;entryY=0.5;entryDx=0;entryDy=0;dashed=1;" edge="1" parent="1" source="EkRoal58RrBzXuHU6dCH-5" target="EkRoal58RrBzXuHU6dCH-6">
          <mxGeometry relative="1" as="geometry" />
        </mxCell>
        <mxCell id="EkRoal58RrBzXuHU6dCH-5" value="raw" style="rounded=1;whiteSpace=wrap;html=1;fillColor=#ffe6cc;strokeColor=#d79b00;dashed=1;" vertex="1" parent="1">
          <mxGeometry x="170" y="180" width="60" height="40" as="geometry" />
        </mxCell>
        <mxCell id="EkRoal58RrBzXuHU6dCH-9" style="edgeStyle=orthogonalEdgeStyle;rounded=0;orthogonalLoop=1;jettySize=auto;html=1;exitX=1;exitY=0.5;exitDx=0;exitDy=0;entryX=0;entryY=0.5;entryDx=0;entryDy=0;dashed=1;" edge="1" parent="1" source="EkRoal58RrBzXuHU6dCH-6" target="EkRoal58RrBzXuHU6dCH-7">
          <mxGeometry relative="1" as="geometry" />
        </mxCell>
        <mxCell id="EkRoal58RrBzXuHU6dCH-6" value="mangle" style="rounded=1;whiteSpace=wrap;html=1;fillColor=#ffe6cc;strokeColor=#d79b00;dashed=1;" vertex="1" parent="1">
          <mxGeometry x="250" y="180" width="60" height="40" as="geometry" />
        </mxCell>
        <mxCell id="EkRoal58RrBzXuHU6dCH-7" value="nat" style="rounded=1;whiteSpace=wrap;html=1;fillColor=#ffe6cc;strokeColor=#d79b00;dashed=1;" vertex="1" parent="1">
          <mxGeometry x="330" y="180" width="60" height="40" as="geometry" />
        </mxCell>
        <mxCell id="EkRoal58RrBzXuHU6dCH-10" value="&lt;b&gt;&lt;font style=&quot;font-size: 20px;&quot;&gt;PREROUTING&lt;/font&gt;&lt;/b&gt;" style="text;html=1;strokeColor=none;fillColor=none;align=center;verticalAlign=middle;whiteSpace=wrap;rounded=0;" vertex="1" parent="1">
          <mxGeometry x="190" y="130" width="170" height="30" as="geometry" />
        </mxCell>
        <mxCell id="EkRoal58RrBzXuHU6dCH-47" style="edgeStyle=orthogonalEdgeStyle;rounded=0;orthogonalLoop=1;jettySize=auto;html=1;exitX=1;exitY=0.5;exitDx=0;exitDy=0;" edge="1" parent="1" source="EkRoal58RrBzXuHU6dCH-11" target="EkRoal58RrBzXuHU6dCH-46">
          <mxGeometry relative="1" as="geometry" />
        </mxCell>
        <mxCell id="EkRoal58RrBzXuHU6dCH-11" value="" style="rounded=1;whiteSpace=wrap;html=1;fillColor=#dae8fc;strokeColor=#6c8ebf;" vertex="1" parent="1">
          <mxGeometry x="120" y="400" width="320" height="120" as="geometry" />
        </mxCell>
        <mxCell id="EkRoal58RrBzXuHU6dCH-14" style="edgeStyle=orthogonalEdgeStyle;rounded=0;orthogonalLoop=1;jettySize=auto;html=1;exitX=1;exitY=0.5;exitDx=0;exitDy=0;entryX=0;entryY=0.5;entryDx=0;entryDy=0;dashed=1;" edge="1" parent="1" source="EkRoal58RrBzXuHU6dCH-15" target="EkRoal58RrBzXuHU6dCH-16">
          <mxGeometry relative="1" as="geometry" />
        </mxCell>
        <mxCell id="EkRoal58RrBzXuHU6dCH-15" value="mangle" style="rounded=1;whiteSpace=wrap;html=1;fillColor=#ffe6cc;strokeColor=#d79b00;dashed=1;" vertex="1" parent="1">
          <mxGeometry x="205" y="460" width="60" height="40" as="geometry" />
        </mxCell>
        <mxCell id="EkRoal58RrBzXuHU6dCH-16" value="filter" style="rounded=1;whiteSpace=wrap;html=1;fillColor=#ffe6cc;strokeColor=#d79b00;dashed=1;" vertex="1" parent="1">
          <mxGeometry x="285" y="460" width="60" height="40" as="geometry" />
        </mxCell>
        <mxCell id="EkRoal58RrBzXuHU6dCH-17" value="&lt;span style=&quot;font-size: 20px;&quot;&gt;&lt;b&gt;INPUT&lt;/b&gt;&lt;/span&gt;" style="text;html=1;strokeColor=none;fillColor=none;align=center;verticalAlign=middle;whiteSpace=wrap;rounded=0;" vertex="1" parent="1">
          <mxGeometry x="190" y="410" width="170" height="30" as="geometry" />
        </mxCell>
        <mxCell id="EkRoal58RrBzXuHU6dCH-20" style="edgeStyle=orthogonalEdgeStyle;rounded=0;orthogonalLoop=1;jettySize=auto;html=1;exitX=0.5;exitY=1;exitDx=0;exitDy=0;entryX=0.5;entryY=0;entryDx=0;entryDy=0;" edge="1" parent="1" source="EkRoal58RrBzXuHU6dCH-18" target="EkRoal58RrBzXuHU6dCH-11">
          <mxGeometry relative="1" as="geometry" />
        </mxCell>
        <mxCell id="EkRoal58RrBzXuHU6dCH-27" style="edgeStyle=orthogonalEdgeStyle;rounded=0;orthogonalLoop=1;jettySize=auto;html=1;exitX=1;exitY=0.5;exitDx=0;exitDy=0;entryX=0;entryY=0.5;entryDx=0;entryDy=0;" edge="1" parent="1" source="EkRoal58RrBzXuHU6dCH-18" target="EkRoal58RrBzXuHU6dCH-21">
          <mxGeometry relative="1" as="geometry" />
        </mxCell>
        <mxCell id="EkRoal58RrBzXuHU6dCH-18" value="目的地&lt;br&gt;是否本机" style="rhombus;whiteSpace=wrap;html=1;" vertex="1" parent="1">
          <mxGeometry x="220" y="280" width="120" height="80" as="geometry" />
        </mxCell>
        <mxCell id="EkRoal58RrBzXuHU6dCH-44" style="edgeStyle=orthogonalEdgeStyle;rounded=0;orthogonalLoop=1;jettySize=auto;html=1;exitX=1;exitY=0.5;exitDx=0;exitDy=0;entryX=0.5;entryY=1;entryDx=0;entryDy=0;" edge="1" parent="1" source="EkRoal58RrBzXuHU6dCH-21" target="EkRoal58RrBzXuHU6dCH-28">
          <mxGeometry relative="1" as="geometry" />
        </mxCell>
        <mxCell id="EkRoal58RrBzXuHU6dCH-21" value="" style="rounded=1;whiteSpace=wrap;html=1;fillColor=#dae8fc;strokeColor=#6c8ebf;" vertex="1" parent="1">
          <mxGeometry x="480" y="260" width="320" height="120" as="geometry" />
        </mxCell>
        <mxCell id="EkRoal58RrBzXuHU6dCH-22" style="edgeStyle=orthogonalEdgeStyle;rounded=0;orthogonalLoop=1;jettySize=auto;html=1;exitX=1;exitY=0.5;exitDx=0;exitDy=0;entryX=0;entryY=0.5;entryDx=0;entryDy=0;dashed=1;" edge="1" parent="1" source="EkRoal58RrBzXuHU6dCH-23" target="EkRoal58RrBzXuHU6dCH-24">
          <mxGeometry relative="1" as="geometry" />
        </mxCell>
        <mxCell id="EkRoal58RrBzXuHU6dCH-23" value="mangle" style="rounded=1;whiteSpace=wrap;html=1;fillColor=#ffe6cc;strokeColor=#d79b00;dashed=1;" vertex="1" parent="1">
          <mxGeometry x="570" y="320" width="60" height="40" as="geometry" />
        </mxCell>
        <mxCell id="EkRoal58RrBzXuHU6dCH-24" value="filter" style="rounded=1;whiteSpace=wrap;html=1;fillColor=#ffe6cc;strokeColor=#d79b00;dashed=1;" vertex="1" parent="1">
          <mxGeometry x="650" y="320" width="60" height="40" as="geometry" />
        </mxCell>
        <mxCell id="EkRoal58RrBzXuHU6dCH-25" value="&lt;span style=&quot;font-size: 20px;&quot;&gt;&lt;b&gt;FORWARD&lt;/b&gt;&lt;/span&gt;" style="text;html=1;strokeColor=none;fillColor=none;align=center;verticalAlign=middle;whiteSpace=wrap;rounded=0;" vertex="1" parent="1">
          <mxGeometry x="550" y="270" width="170" height="30" as="geometry" />
        </mxCell>
        <mxCell id="EkRoal58RrBzXuHU6dCH-28" value="" style="rounded=1;whiteSpace=wrap;html=1;fillColor=#dae8fc;strokeColor=#6c8ebf;" vertex="1" parent="1">
          <mxGeometry x="840" y="120" width="320" height="120" as="geometry" />
        </mxCell>
        <mxCell id="EkRoal58RrBzXuHU6dCH-29" style="edgeStyle=orthogonalEdgeStyle;rounded=0;orthogonalLoop=1;jettySize=auto;html=1;exitX=1;exitY=0.5;exitDx=0;exitDy=0;entryX=0;entryY=0.5;entryDx=0;entryDy=0;dashed=1;" edge="1" parent="1" source="EkRoal58RrBzXuHU6dCH-30" target="EkRoal58RrBzXuHU6dCH-32">
          <mxGeometry relative="1" as="geometry" />
        </mxCell>
        <mxCell id="EkRoal58RrBzXuHU6dCH-30" value="raw" style="rounded=1;whiteSpace=wrap;html=1;fillColor=#ffe6cc;strokeColor=#d79b00;dashed=1;" vertex="1" parent="1">
          <mxGeometry x="890" y="180" width="60" height="40" as="geometry" />
        </mxCell>
        <mxCell id="EkRoal58RrBzXuHU6dCH-31" style="edgeStyle=orthogonalEdgeStyle;rounded=0;orthogonalLoop=1;jettySize=auto;html=1;exitX=1;exitY=0.5;exitDx=0;exitDy=0;entryX=0;entryY=0.5;entryDx=0;entryDy=0;dashed=1;" edge="1" parent="1" source="EkRoal58RrBzXuHU6dCH-32" target="EkRoal58RrBzXuHU6dCH-33">
          <mxGeometry relative="1" as="geometry" />
        </mxCell>
        <mxCell id="EkRoal58RrBzXuHU6dCH-32" value="mangle" style="rounded=1;whiteSpace=wrap;html=1;fillColor=#ffe6cc;strokeColor=#d79b00;dashed=1;" vertex="1" parent="1">
          <mxGeometry x="970" y="180" width="60" height="40" as="geometry" />
        </mxCell>
        <mxCell id="EkRoal58RrBzXuHU6dCH-33" value="nat" style="rounded=1;whiteSpace=wrap;html=1;fillColor=#ffe6cc;strokeColor=#d79b00;dashed=1;" vertex="1" parent="1">
          <mxGeometry x="1050" y="180" width="60" height="40" as="geometry" />
        </mxCell>
        <mxCell id="EkRoal58RrBzXuHU6dCH-34" value="&lt;b&gt;&lt;font style=&quot;font-size: 20px;&quot;&gt;POSTROUTING&lt;/font&gt;&lt;/b&gt;" style="text;html=1;strokeColor=none;fillColor=none;align=center;verticalAlign=middle;whiteSpace=wrap;rounded=0;" vertex="1" parent="1">
          <mxGeometry x="910" y="130" width="170" height="30" as="geometry" />
        </mxCell>
        <mxCell id="EkRoal58RrBzXuHU6dCH-45" style="edgeStyle=orthogonalEdgeStyle;rounded=0;orthogonalLoop=1;jettySize=auto;html=1;entryX=0.5;entryY=1;entryDx=0;entryDy=0;" edge="1" parent="1" source="EkRoal58RrBzXuHU6dCH-35" target="EkRoal58RrBzXuHU6dCH-28">
          <mxGeometry relative="1" as="geometry" />
        </mxCell>
        <mxCell id="EkRoal58RrBzXuHU6dCH-35" value="" style="rounded=1;whiteSpace=wrap;html=1;fillColor=#dae8fc;strokeColor=#6c8ebf;" vertex="1" parent="1">
          <mxGeometry x="840" y="400" width="320" height="120" as="geometry" />
        </mxCell>
        <mxCell id="EkRoal58RrBzXuHU6dCH-36" style="edgeStyle=orthogonalEdgeStyle;rounded=0;orthogonalLoop=1;jettySize=auto;html=1;exitX=1;exitY=0.5;exitDx=0;exitDy=0;entryX=0;entryY=0.5;entryDx=0;entryDy=0;dashed=1;" edge="1" parent="1" source="EkRoal58RrBzXuHU6dCH-37" target="EkRoal58RrBzXuHU6dCH-39">
          <mxGeometry relative="1" as="geometry" />
        </mxCell>
        <mxCell id="EkRoal58RrBzXuHU6dCH-37" value="raw" style="rounded=1;whiteSpace=wrap;html=1;fillColor=#ffe6cc;strokeColor=#d79b00;dashed=1;" vertex="1" parent="1">
          <mxGeometry x="850" y="460" width="60" height="40" as="geometry" />
        </mxCell>
        <mxCell id="EkRoal58RrBzXuHU6dCH-38" style="edgeStyle=orthogonalEdgeStyle;rounded=0;orthogonalLoop=1;jettySize=auto;html=1;exitX=1;exitY=0.5;exitDx=0;exitDy=0;entryX=0;entryY=0.5;entryDx=0;entryDy=0;dashed=1;" edge="1" parent="1" source="EkRoal58RrBzXuHU6dCH-39" target="EkRoal58RrBzXuHU6dCH-40">
          <mxGeometry relative="1" as="geometry" />
        </mxCell>
        <mxCell id="EkRoal58RrBzXuHU6dCH-39" value="mangle" style="rounded=1;whiteSpace=wrap;html=1;fillColor=#ffe6cc;strokeColor=#d79b00;dashed=1;" vertex="1" parent="1">
          <mxGeometry x="930" y="460" width="60" height="40" as="geometry" />
        </mxCell>
        <mxCell id="EkRoal58RrBzXuHU6dCH-40" value="nat" style="rounded=1;whiteSpace=wrap;html=1;fillColor=#ffe6cc;strokeColor=#d79b00;dashed=1;" vertex="1" parent="1">
          <mxGeometry x="1010" y="460" width="60" height="40" as="geometry" />
        </mxCell>
        <mxCell id="EkRoal58RrBzXuHU6dCH-41" value="&lt;b&gt;&lt;font style=&quot;font-size: 20px;&quot;&gt;OUTPUT&lt;/font&gt;&lt;/b&gt;" style="text;html=1;strokeColor=none;fillColor=none;align=center;verticalAlign=middle;whiteSpace=wrap;rounded=0;" vertex="1" parent="1">
          <mxGeometry x="910" y="410" width="170" height="30" as="geometry" />
        </mxCell>
        <mxCell id="EkRoal58RrBzXuHU6dCH-42" style="edgeStyle=orthogonalEdgeStyle;rounded=0;orthogonalLoop=1;jettySize=auto;html=1;exitX=1;exitY=0.5;exitDx=0;exitDy=0;entryX=0;entryY=0.5;entryDx=0;entryDy=0;dashed=1;" edge="1" parent="1" target="EkRoal58RrBzXuHU6dCH-43">
          <mxGeometry relative="1" as="geometry">
            <mxPoint x="1070" y="480" as="sourcePoint" />
          </mxGeometry>
        </mxCell>
        <mxCell id="EkRoal58RrBzXuHU6dCH-43" value="filter" style="rounded=1;whiteSpace=wrap;html=1;fillColor=#ffe6cc;strokeColor=#d79b00;dashed=1;" vertex="1" parent="1">
          <mxGeometry x="1090" y="460" width="60" height="40" as="geometry" />
        </mxCell>
        <mxCell id="EkRoal58RrBzXuHU6dCH-48" style="edgeStyle=orthogonalEdgeStyle;rounded=0;orthogonalLoop=1;jettySize=auto;html=1;exitX=1;exitY=0.5;exitDx=0;exitDy=0;entryX=0;entryY=0.5;entryDx=0;entryDy=0;" edge="1" parent="1" source="EkRoal58RrBzXuHU6dCH-46" target="EkRoal58RrBzXuHU6dCH-35">
          <mxGeometry relative="1" as="geometry" />
        </mxCell>
        <mxCell id="EkRoal58RrBzXuHU6dCH-46" value="LocalHost" style="rounded=1;whiteSpace=wrap;html=1;" vertex="1" parent="1">
          <mxGeometry x="580" y="430" width="120" height="60" as="geometry" />
        </mxCell>
        <mxCell id="EkRoal58RrBzXuHU6dCH-51" value="" style="triangle;whiteSpace=wrap;html=1;rotation=-90;fillColor=#e1d5e7;strokeColor=none;" vertex="1" parent="1">
          <mxGeometry x="965" y="20" width="70" height="110" as="geometry" />
        </mxCell>
        <mxCell id="EkRoal58RrBzXuHU6dCH-52" value="&lt;b&gt;&lt;font style=&quot;font-size: 16px;&quot;&gt;out&lt;/font&gt;&lt;/b&gt;" style="text;html=1;strokeColor=none;fillColor=#e1d5e7;align=center;verticalAlign=middle;whiteSpace=wrap;rounded=0;" vertex="1" parent="1">
          <mxGeometry x="980" y="70" width="40" height="30" as="geometry" />
        </mxCell>
        <mxCell id="EkRoal58RrBzXuHU6dCH-53" value="N" style="text;html=1;strokeColor=none;fillColor=none;align=center;verticalAlign=middle;whiteSpace=wrap;rounded=0;" vertex="1" parent="1">
          <mxGeometry x="380" y="290" width="30" height="30" as="geometry" />
        </mxCell>
        <mxCell id="EkRoal58RrBzXuHU6dCH-54" value="Y" style="text;html=1;strokeColor=none;fillColor=none;align=center;verticalAlign=middle;whiteSpace=wrap;rounded=0;" vertex="1" parent="1">
          <mxGeometry x="280" y="360" width="30" height="30" as="geometry" />
        </mxCell>
        <mxCell id="EkRoal58RrBzXuHU6dCH-55" value="iptables" style="rounded=1;whiteSpace=wrap;html=1;fillColor=#dae8fc;strokeColor=#6c8ebf;" vertex="1" parent="1">
          <mxGeometry x="110" y="760" width="80" height="240" as="geometry" />
        </mxCell>
        <mxCell id="EkRoal58RrBzXuHU6dCH-56" value="" style="rounded=1;whiteSpace=wrap;html=1;align=left;fillColor=#ffe6cc;strokeColor=#d79b00;" vertex="1" parent="1">
          <mxGeometry x="200" y="800" width="90" height="200" as="geometry" />
        </mxCell>
        <mxCell id="EkRoal58RrBzXuHU6dCH-57" value="&lt;ul style=&quot;border-color: var(--border-color); color: rgb(0, 0, 0); font-family: Helvetica; font-style: normal; font-variant-ligatures: normal; font-variant-caps: normal; font-weight: 400; letter-spacing: normal; orphans: 2; text-align: left; text-indent: 0px; text-transform: none; widows: 2; word-spacing: 0px; -webkit-text-stroke-width: 0px; text-decoration-thickness: initial; text-decoration-style: initial; text-decoration-color: initial;&quot;&gt;&lt;li style=&quot;border-color: var(--border-color);&quot;&gt;&lt;span style=&quot;font-size: 14px;&quot;&gt;-t filter&lt;/span&gt;&lt;/li&gt;&lt;li style=&quot;border-color: var(--border-color);&quot;&gt;&lt;span style=&quot;font-size: 14px;&quot;&gt;-t nat&lt;/span&gt;&lt;/li&gt;&lt;li style=&quot;border-color: var(--border-color);&quot;&gt;&lt;span style=&quot;font-size: 14px;&quot;&gt;-t mangle&lt;/span&gt;&lt;/li&gt;&lt;li style=&quot;border-color: var(--border-color);&quot;&gt;&lt;span style=&quot;font-size: 14px;&quot;&gt;-t raw&lt;/span&gt;&lt;/li&gt;&lt;/ul&gt;" style="text;html=1;strokeColor=none;fillColor=none;align=center;verticalAlign=middle;whiteSpace=wrap;rounded=0;" vertex="1" parent="1">
          <mxGeometry x="165" y="825" width="125" height="130" as="geometry" />
        </mxCell>
        <mxCell id="EkRoal58RrBzXuHU6dCH-59" value="" style="rounded=1;whiteSpace=wrap;html=1;align=left;fillColor=#ffe6cc;strokeColor=#d79b00;" vertex="1" parent="1">
          <mxGeometry x="400" y="800" width="130" height="200" as="geometry" />
        </mxCell>
        <mxCell id="EkRoal58RrBzXuHU6dCH-60" value="&lt;ul style=&quot;border-color: var(--border-color); color: rgb(0, 0, 0); font-family: Helvetica; font-style: normal; font-variant-ligatures: normal; font-variant-caps: normal; font-weight: 400; letter-spacing: normal; orphans: 2; text-align: left; text-indent: 0px; text-transform: none; widows: 2; word-spacing: 0px; -webkit-text-stroke-width: 0px; text-decoration-thickness: initial; text-decoration-style: initial; text-decoration-color: initial;&quot;&gt;&lt;li style=&quot;border-color: var(--border-color);&quot;&gt;&lt;span style=&quot;font-size: 14px;&quot;&gt;PREROUTING&lt;/span&gt;&lt;/li&gt;&lt;li style=&quot;border-color: var(--border-color);&quot;&gt;&lt;span style=&quot;font-size: 14px;&quot;&gt;INPUT&lt;/span&gt;&lt;/li&gt;&lt;li style=&quot;border-color: var(--border-color);&quot;&gt;&lt;span style=&quot;font-size: 14px;&quot;&gt;FORWARD&lt;/span&gt;&lt;/li&gt;&lt;li style=&quot;border-color: var(--border-color);&quot;&gt;&lt;span style=&quot;font-size: 14px;&quot;&gt;OUTPUT&lt;/span&gt;&lt;/li&gt;&lt;li style=&quot;border-color: var(--border-color);&quot;&gt;&lt;span style=&quot;font-size: 14px;&quot;&gt;POSTROUTING&lt;/span&gt;&lt;/li&gt;&lt;/ul&gt;" style="text;html=1;strokeColor=none;fillColor=none;align=center;verticalAlign=middle;whiteSpace=wrap;rounded=0;" vertex="1" parent="1">
          <mxGeometry x="380" y="835" width="142.5" height="130" as="geometry" />
        </mxCell>
        <mxCell id="EkRoal58RrBzXuHU6dCH-61" value="table" style="rounded=1;whiteSpace=wrap;html=1;fontStyle=1;fillColor=#f8cecc;strokeColor=#b85450;" vertex="1" parent="1">
          <mxGeometry x="205" y="760" width="80" height="30" as="geometry" />
        </mxCell>
        <mxCell id="EkRoal58RrBzXuHU6dCH-64" value="" style="rounded=1;whiteSpace=wrap;html=1;align=left;fillColor=#e1d5e7;strokeColor=#9673a6;" vertex="1" parent="1">
          <mxGeometry x="300" y="800" width="90" height="200" as="geometry" />
        </mxCell>
        <mxCell id="EkRoal58RrBzXuHU6dCH-65" value="&lt;ul style=&quot;border-color: var(--border-color); color: rgb(0, 0, 0); font-family: Helvetica; font-style: normal; font-variant-ligatures: normal; font-variant-caps: normal; font-weight: 400; letter-spacing: normal; orphans: 2; text-align: left; text-indent: 0px; text-transform: none; widows: 2; word-spacing: 0px; -webkit-text-stroke-width: 0px; text-decoration-thickness: initial; text-decoration-style: initial; text-decoration-color: initial;&quot;&gt;&lt;li style=&quot;font-size: 12px; border-color: var(--border-color);&quot;&gt;&lt;span style=&quot;border-color: var(--border-color); font-size: 14px;&quot;&gt;-A&lt;/span&gt;&lt;/li&gt;&lt;li style=&quot;font-size: 12px; border-color: var(--border-color);&quot;&gt;&lt;span style=&quot;border-color: var(--border-color); font-size: 14px;&quot;&gt;-D&lt;/span&gt;&lt;/li&gt;&lt;li style=&quot;font-size: 12px; border-color: var(--border-color);&quot;&gt;&lt;span style=&quot;border-color: var(--border-color); font-size: 14px;&quot;&gt;-I&lt;/span&gt;&lt;/li&gt;&lt;li style=&quot;font-size: 12px; border-color: var(--border-color);&quot;&gt;&lt;span style=&quot;border-color: var(--border-color); font-size: 14px;&quot;&gt;-R&lt;/span&gt;&lt;/li&gt;&lt;li style=&quot;font-size: 12px; border-color: var(--border-color);&quot;&gt;&lt;span style=&quot;border-color: var(--border-color); font-size: 14px;&quot;&gt;-L&lt;/span&gt;&lt;/li&gt;&lt;li style=&quot;font-size: 12px; border-color: var(--border-color);&quot;&gt;&lt;span style=&quot;border-color: var(--border-color); font-size: 14px;&quot;&gt;-F&lt;/span&gt;&lt;/li&gt;&lt;li style=&quot;font-size: 12px; border-color: var(--border-color);&quot;&gt;&lt;span style=&quot;border-color: var(--border-color); font-size: 14px;&quot;&gt;-Z&lt;/span&gt;&lt;/li&gt;&lt;li style=&quot;border-color: var(--border-color);&quot;&gt;&lt;span style=&quot;font-size: 14px;&quot;&gt;-N&lt;/span&gt;&lt;/li&gt;&lt;li style=&quot;border-color: var(--border-color);&quot;&gt;&lt;span style=&quot;font-size: 14px;&quot;&gt;-X&lt;/span&gt;&lt;/li&gt;&lt;li style=&quot;border-color: var(--border-color);&quot;&gt;&lt;span style=&quot;font-size: 14px;&quot;&gt;-P&lt;/span&gt;&lt;/li&gt;&lt;/ul&gt;" style="text;html=1;strokeColor=none;fillColor=none;align=center;verticalAlign=middle;whiteSpace=wrap;rounded=0;" vertex="1" parent="1">
          <mxGeometry x="265" y="800" width="100" height="200" as="geometry" />
        </mxCell>
        <mxCell id="EkRoal58RrBzXuHU6dCH-67" value="command" style="rounded=1;whiteSpace=wrap;html=1;fontStyle=1;fillColor=#f8cecc;strokeColor=#b85450;" vertex="1" parent="1">
          <mxGeometry x="305" y="760" width="80" height="30" as="geometry" />
        </mxCell>
        <mxCell id="EkRoal58RrBzXuHU6dCH-68" value="chain" style="rounded=1;whiteSpace=wrap;html=1;fontStyle=1;fillColor=#f8cecc;strokeColor=#b85450;" vertex="1" parent="1">
          <mxGeometry x="405" y="760" width="115" height="30" as="geometry" />
        </mxCell>
        <mxCell id="EkRoal58RrBzXuHU6dCH-69" value="" style="rounded=1;whiteSpace=wrap;html=1;align=left;fillColor=#e1d5e7;strokeColor=#9673a6;" vertex="1" parent="1">
          <mxGeometry x="540" y="800" width="90" height="200" as="geometry" />
        </mxCell>
        <mxCell id="EkRoal58RrBzXuHU6dCH-70" value="&lt;ul style=&quot;border-color: var(--border-color); color: rgb(0, 0, 0); font-family: Helvetica; font-size: 12px; font-style: normal; font-variant-ligatures: normal; font-variant-caps: normal; font-weight: 400; letter-spacing: normal; orphans: 2; text-align: left; text-indent: 0px; text-transform: none; widows: 2; word-spacing: 0px; -webkit-text-stroke-width: 0px; text-decoration-thickness: initial; text-decoration-style: initial; text-decoration-color: initial;&quot;&gt;&lt;li style=&quot;border-color: var(--border-color);&quot;&gt;&lt;span style=&quot;border-color: var(--border-color); font-size: 14px;&quot;&gt;-p&lt;/span&gt;&lt;/li&gt;&lt;li style=&quot;border-color: var(--border-color);&quot;&gt;&lt;span style=&quot;border-color: var(--border-color); font-size: 14px;&quot;&gt;-s&lt;/span&gt;&lt;/li&gt;&lt;li style=&quot;border-color: var(--border-color);&quot;&gt;&lt;span style=&quot;border-color: var(--border-color); font-size: 14px;&quot;&gt;-d&lt;/span&gt;&lt;/li&gt;&lt;li style=&quot;border-color: var(--border-color);&quot;&gt;&lt;span style=&quot;border-color: var(--border-color); font-size: 14px;&quot;&gt;-i&lt;/span&gt;&lt;/li&gt;&lt;li style=&quot;border-color: var(--border-color);&quot;&gt;&lt;span style=&quot;border-color: var(--border-color); font-size: 14px;&quot;&gt;-o&lt;/span&gt;&lt;/li&gt;&lt;li style=&quot;border-color: var(--border-color);&quot;&gt;&lt;span style=&quot;border-color: var(--border-color); font-size: 14px;&quot;&gt;--sport&lt;/span&gt;&lt;/li&gt;&lt;li style=&quot;border-color: var(--border-color);&quot;&gt;&lt;span style=&quot;border-color: var(--border-color); font-size: 14px;&quot;&gt;--dport&lt;/span&gt;&lt;/li&gt;&lt;li style=&quot;border-color: var(--border-color);&quot;&gt;&lt;span style=&quot;border-color: var(--border-color); font-size: 14px;&quot;&gt;...&lt;/span&gt;&lt;/li&gt;&lt;/ul&gt;" style="text;html=1;strokeColor=none;fillColor=none;align=center;verticalAlign=middle;whiteSpace=wrap;rounded=0;" vertex="1" parent="1">
          <mxGeometry x="525" y="820" width="100" height="170" as="geometry" />
        </mxCell>
        <mxCell id="EkRoal58RrBzXuHU6dCH-71" value="parameter" style="rounded=1;whiteSpace=wrap;html=1;fontStyle=1;fillColor=#f8cecc;strokeColor=#b85450;" vertex="1" parent="1">
          <mxGeometry x="545" y="760" width="80" height="30" as="geometry" />
        </mxCell>
        <mxCell id="EkRoal58RrBzXuHU6dCH-74" value="" style="rounded=1;whiteSpace=wrap;html=1;align=left;fillColor=#ffe6cc;strokeColor=#d79b00;" vertex="1" parent="1">
          <mxGeometry x="645" y="800" width="155" height="200" as="geometry" />
        </mxCell>
        <mxCell id="EkRoal58RrBzXuHU6dCH-75" value="&lt;ul style=&quot;border-color: var(--border-color); color: rgb(0, 0, 0); font-family: Helvetica; font-size: 14px; font-style: normal; font-variant-ligatures: normal; font-variant-caps: normal; font-weight: 400; letter-spacing: normal; orphans: 2; text-align: left; text-indent: 0px; text-transform: none; widows: 2; word-spacing: 0px; -webkit-text-stroke-width: 0px; text-decoration-thickness: initial; text-decoration-style: initial; text-decoration-color: initial;&quot;&gt;&lt;li style=&quot;border-color: var(--border-color);&quot;&gt;&lt;span style=&quot;border-color: var(--border-color);&quot;&gt;-j ACCEPT&lt;/span&gt;&lt;/li&gt;&lt;li style=&quot;border-color: var(--border-color);&quot;&gt;-j DROP&lt;/li&gt;&lt;li style=&quot;border-color: var(--border-color);&quot;&gt;-j REJECT&lt;/li&gt;&lt;li style=&quot;border-color: var(--border-color);&quot;&gt;-j RETURN&lt;/li&gt;&lt;li style=&quot;border-color: var(--border-color);&quot;&gt;-j LOG&lt;/li&gt;&lt;li style=&quot;border-color: var(--border-color);&quot;&gt;-j SNAT&lt;/li&gt;&lt;li style=&quot;border-color: var(--border-color);&quot;&gt;-j DNAT&lt;/li&gt;&lt;li style=&quot;border-color: var(--border-color);&quot;&gt;-j REDIRECT&lt;/li&gt;&lt;li style=&quot;border-color: var(--border-color);&quot;&gt;-j MASQUERADE&lt;/li&gt;&lt;li style=&quot;border-color: var(--border-color);&quot;&gt;-j MARK&lt;/li&gt;&lt;li style=&quot;border-color: var(--border-color);&quot;&gt;-j QUEUE&lt;/li&gt;&lt;/ul&gt;" style="text;html=1;strokeColor=none;fillColor=none;align=center;verticalAlign=middle;whiteSpace=wrap;rounded=0;" vertex="1" parent="1">
          <mxGeometry x="625" y="800" width="170" height="200" as="geometry" />
        </mxCell>
        <mxCell id="EkRoal58RrBzXuHU6dCH-76" value="target" style="rounded=1;whiteSpace=wrap;html=1;fontStyle=1;fillColor=#f8cecc;strokeColor=#b85450;" vertex="1" parent="1">
          <mxGeometry x="650" y="760" width="140" height="30" as="geometry" />
        </mxCell>
      </root>
    </mxGraphModel>
  </diagram>
</mxfile>
